<?xml version="1.0" standalone="no"?>
<!DOCTYPE svg PUBLIC "-//W3C//DTD SVG 20010904//EN"
 "http://www.w3.org/TR/2001/REC-SVG-20010904/DTD/svg10.dtd">
<svg version="1.0" xmlns="http://www.w3.org/2000/svg"
 width="700.000000pt" height="700.000000pt" viewBox="0 0 700.000000 700.000000"
 preserveAspectRatio="xMidYMid meet">
<metadata>
Created by potrace 1.11, written by Peter Selinger 2001-2013
</metadata>
<g transform="translate(0.000000,700.000000) scale(0.100000,-0.100000)"
fill="#000000" stroke="none">
<path d="M3298 6995 c-2 -1 -48 -6 -102 -9 -55 -4 -102 -8 -105 -10 -3 -2 -35
-7 -71 -10 -36 -4 -83 -11 -105 -16 -22 -5 -57 -11 -78 -14 -132 -20 -503
-128 -626 -182 -20 -9 -45 -20 -56 -24 -511 -206 -1022 -592 -1391 -1050 -237
-296 -438 -656 -564 -1015 -27 -77 -95 -302 -104 -348 -25 -119 -55 -283 -61
-332 -4 -33 -9 -69 -11 -80 -18 -98 -25 -570 -10 -715 8 -81 24 -207 32 -255
3 -16 7 -39 9 -50 14 -105 87 -384 134 -518 83 -237 182 -453 295 -641 36 -60
66 -111 66 -113 0 -2 4 -9 10 -16 5 -7 47 -65 92 -129 356 -503 856 -914 1408
-1158 52 -23 115 -51 138 -61 45 -21 324 -115 364 -123 13 -3 48 -12 78 -19
296 -76 513 -102 860 -102 214 0 342 7 475 26 864 122 1651 557 2204 1217 386
463 637 987 755 1583 14 70 28 155 32 190 3 35 8 67 10 70 24 41 23 779 -1
818 -1 4 -6 33 -9 66 -3 33 -8 69 -10 80 -2 11 -11 61 -21 110 -68 366 -210
746 -405 1085 -49 86 -201 316 -227 345 -10 11 -31 38 -48 60 -16 22 -39 51
-51 65 -12 14 -41 48 -64 75 -142 167 -361 370 -550 509 -58 43 -112 83 -121
89 -61 46 -314 193 -429 249 -286 140 -649 260 -917 302 -33 5 -116 19 -123
21 -3 1 -41 5 -85 10 -44 4 -89 10 -100 12 -25 4 -512 12 -517 8z"/>
</g>
</svg>
